<?xml version="1.0" encoding="UTF-8"?>
<!DOCTYPE svg PUBLIC "-//W3C//DTD SVG 1.1//EN" "http://www.w3.org/Graphics/SVG/1.1/DTD/svg11.dtd">
<svg version="1.1" xmlns="http://www.w3.org/2000/svg" xmlns:xlink="http://www.w3.org/1999/xlink" x="0px" y="0px" width="128" height="128" viewBox="0, 0, 128, 128">
  <g id="Background">
    <rect x="0" y="0" width="128" height="128" fill="#000000" fill-opacity="0"/>
  </g>
  <g id="Background">
    <path d="M18.093,6 L109.907,6 C116.561,6 122,11.439 122,18.095 L122,109.907 C122,116.561 116.561,122 109.907,122 L18.093,122 C11.439,122 6,116.561 6,109.907 L6,18.095 C6,11.439 11.439,6 18.093,6" fill="#727272"/>
    <path d="M65.392,26.534 C92.781,26.534 114.985,42.537 114.985,62.279 C114.985,82.022 92.781,98.025 65.392,98.025 C57.446,98.025 49.938,96.672 43.28,94.279 C37.388,97.344 33.392,103.3 33.392,110.141 C33.392,110.761 33.424,111.365 33.487,111.972 C29.223,108.66 26.497,103.619 26.497,97.97 C26.497,94.015 27.829,90.356 30.094,87.384 C21.257,80.93 15.8,72.065 15.8,62.279 C15.8,42.537 38.005,26.534 65.392,26.534" fill="#EBECEC"/>
    <path d="M36.561,56.228 C37.032,55.73 37.52,55.324 38.018,55.008 C38.515,54.693 38.996,54.443 39.453,54.259 C39.914,54.077 40.338,53.958 40.731,53.903 C41.129,53.853 41.467,53.826 41.754,53.826 C44.22,53.826 45.978,54.72 47.029,56.502 C47.659,55.899 48.266,55.419 48.86,55.068 C49.45,54.712 49.998,54.443 50.509,54.259 C51.021,54.077 51.482,53.958 51.888,53.903 C52.295,53.853 52.642,53.826 52.93,53.826 C55.345,53.826 57.058,54.438 58.068,55.658 C59.076,56.876 59.579,58.68 59.579,61.069 L59.579,73.934 L52.066,73.934 L52.066,63.347 C52.066,62.508 51.938,61.844 51.691,61.361 C51.44,60.878 50.924,60.634 50.14,60.634 C49.431,60.634 48.915,60.881 48.604,61.379 C48.29,61.881 48.102,62.484 48.052,63.193 L48.052,73.934 L40.534,73.934 L40.534,63.347 C40.534,62.508 40.412,61.844 40.16,61.361 C39.914,60.878 39.393,60.634 38.607,60.634 C37.85,60.634 37.31,60.923 36.995,61.498 C36.68,62.078 36.521,62.745 36.521,63.507 L36.521,73.934 L29.008,73.934 L29.008,54.337 L36.365,54.337 L36.365,56.186 z M70.9,53.789 C72.631,53.789 74.169,54.095 75.523,54.712 C76.874,55.327 77.915,56.186 78.65,57.288 C79.884,59.023 80.472,61.288 80.422,64.097 C80.422,66.591 79.869,68.672 78.769,70.353 C77.851,71.769 76.663,72.764 75.207,73.344 C73.755,73.92 72.147,74.208 70.388,74.208 C68.63,74.208 67.082,73.952 65.745,73.441 C64.406,72.929 63.37,72.125 62.639,71.02 C61.981,70.079 61.511,69.015 61.218,67.838 C60.931,66.653 60.799,65.371 60.826,63.977 C60.854,63.009 60.958,62.055 61.14,61.124 C61.324,60.196 61.603,59.333 61.967,58.548 C62.676,57.054 63.821,55.885 65.411,55.045 C66.995,54.209 68.827,53.789 70.9,53.789 z M70.544,68.112 C70.992,68.112 71.339,68.037 71.59,67.892 C71.836,67.751 72.065,67.532 72.275,67.243 C72.54,66.877 72.708,66.417 72.787,65.869 C72.869,65.316 72.905,64.727 72.905,64.097 C72.905,63.417 72.869,62.817 72.787,62.307 C72.708,61.794 72.568,61.356 72.357,60.987 C72.147,60.671 71.914,60.43 71.667,60.261 C71.416,60.091 71.07,60.004 70.626,60.004 C70.151,60.004 69.785,60.101 69.521,60.301 C69.26,60.497 69.023,60.776 68.812,61.147 C68.603,61.54 68.461,61.996 68.379,62.521 C68.302,63.046 68.265,63.599 68.265,64.174 C68.265,64.804 68.302,65.394 68.379,65.946 C68.461,66.499 68.645,66.955 68.932,67.325 C69.143,67.586 69.365,67.783 69.603,67.915 C69.835,68.042 70.151,68.112 70.544,68.112 z M91.387,53.789 C93.118,53.789 94.658,54.095 96.01,54.712 C97.361,55.327 98.402,56.186 99.138,57.288 C100.371,59.023 100.96,61.288 100.909,64.097 C100.909,66.591 100.356,68.672 99.256,70.353 C98.338,71.769 97.15,72.764 95.694,73.344 C94.242,73.92 92.634,74.208 90.877,74.208 C89.117,74.208 87.569,73.952 86.232,73.441 C84.893,72.929 83.857,72.125 83.125,71.02 C82.468,70.079 81.998,69.015 81.706,67.838 C81.418,66.653 81.286,65.371 81.313,63.977 C81.34,63.009 81.445,62.055 81.627,61.124 C81.811,60.196 82.09,59.333 82.455,58.548 C83.163,57.054 84.308,55.885 85.898,55.045 C87.482,54.209 89.314,53.789 91.387,53.789 z M91.031,68.112 C91.479,68.112 91.826,68.037 92.077,67.892 C92.323,67.751 92.552,67.532 92.762,67.243 C93.027,66.877 93.197,66.417 93.274,65.869 C93.356,65.316 93.393,64.727 93.393,64.097 C93.393,63.417 93.356,62.817 93.274,62.307 C93.197,61.794 93.055,61.356 92.844,60.987 C92.634,60.671 92.401,60.43 92.154,60.261 C91.903,60.091 91.556,60.004 91.113,60.004 C90.638,60.004 90.272,60.101 90.008,60.301 C89.747,60.497 89.51,60.776 89.301,61.147 C89.09,61.54 88.948,61.996 88.866,62.521 C88.789,63.046 88.753,63.599 88.753,64.174 C88.753,64.804 88.789,65.394 88.866,65.946 C88.948,66.499 89.132,66.955 89.418,67.325 C89.63,67.586 89.854,67.783 90.09,67.915 C90.324,68.042 90.638,68.112 91.031,68.112" fill="#727272"/>
  </g>
  <defs/>
</svg>
